<svg xmlns="http://www.w3.org/2000/svg" xmlns:xlink="http://www.w3.org/1999/xlink" height="800px" width="800px" version="1.1" id="Layer_1" viewBox="0 0 512 512" xml:space="preserve">
<g transform="translate(1 1)">
	<polygon style="fill:#D0E8F9;" points="7.533,7.533 502.467,7.533 502.467,58.733 7.533,58.733  "/>
	<g>
		<path style="fill:#0096E6;" d="M511,67.267H-1V-1h512V67.267z M16.067,50.2h477.867V16.067H16.067V50.2z"/>
		<path style="fill:#0096E6;" d="M255,451.267c-5.12,0-8.533-3.413-8.533-8.533v-17.067H7.533c-5.12,0-8.533-3.413-8.533-8.533    s3.413-8.533,8.533-8.533h494.933c5.12,0,8.533,3.413,8.533,8.533s-3.413,8.533-8.533,8.533H263.533v17.067    C263.533,447.853,260.12,451.267,255,451.267z"/>
	</g>
	<path style="fill:#D0E8F9;" d="M280.6,476.867c0,14.507-11.093,25.6-25.6,25.6c-14.507,0-25.6-11.093-25.6-25.6   c0-14.507,11.093-25.6,25.6-25.6C269.507,451.267,280.6,462.36,280.6,476.867L280.6,476.867z"/>
	<path style="fill:#0096E6;" d="M255,511c-18.773,0-34.133-15.36-34.133-34.133s15.36-34.133,34.133-34.133   s34.133,15.36,34.133,34.133S273.773,511,255,511z M255,459.8c-9.387,0-17.067,7.68-17.067,17.067s7.68,17.067,17.067,17.067   s17.067-7.68,17.067-17.067S264.387,459.8,255,459.8z"/>
	<polygon style="fill:#FFFFFF;" points="24.6,58.733 485.4,58.733 485.4,417.133 24.6,417.133  "/>
	<path style="fill:#0096E6;" d="M493.933,425.667H16.067V50.2h477.867V425.667z M33.133,408.6h443.733V67.267H33.133V408.6z"/>
	<polygon style="fill:#D0E8F9;" points="229.4,135.533 280.6,135.533 280.6,186.733 229.4,186.733  "/>
	<g>
		<path style="fill:#0096E6;" d="M289.133,195.267h-68.267V127h68.267V195.267z M237.933,178.2h34.133v-34.133h-34.133V178.2z"/>
		<polygon style="fill:#0096E6;" points="391.533,286.573 374.467,286.573 374.467,255 263.533,255 263.533,286.573     246.467,286.573 246.467,255 135.533,255 135.533,286.573 118.467,286.573 118.467,237.933 246.467,237.933 246.467,186.733     263.533,186.733 263.533,237.933 391.533,237.933   "/>
	</g>
	<path style="fill:#D0E8F9;" d="M161.133,314.733c0,18.773-15.36,34.133-34.133,34.133s-34.133-15.36-34.133-34.133   c0-18.773,15.36-34.133,34.133-34.133S161.133,295.96,161.133,314.733L161.133,314.733z"/>
	<path style="fill:#0096E6;" d="M127,357.4c-23.893,0-42.667-18.773-42.667-42.667c0-23.893,18.773-42.667,42.667-42.667   s42.667,18.773,42.667,42.667C169.667,338.627,150.893,357.4,127,357.4z M127,289.133c-14.507,0-25.6,11.093-25.6,25.6   c0,14.507,11.093,25.6,25.6,25.6s25.6-11.093,25.6-25.6C152.6,300.227,141.507,289.133,127,289.133z"/>
	<path style="fill:#D0E8F9;" d="M289.133,314.733c0,18.773-15.36,34.133-34.133,34.133s-34.133-15.36-34.133-34.133   c0-18.773,15.36-34.133,34.133-34.133S289.133,295.96,289.133,314.733L289.133,314.733z"/>
	<path style="fill:#0096E6;" d="M255,357.4c-23.893,0-42.667-18.773-42.667-42.667c0-23.893,18.773-42.667,42.667-42.667   s42.667,18.773,42.667,42.667C297.667,338.627,278.893,357.4,255,357.4z M255,289.133c-14.507,0-25.6,11.093-25.6,25.6   c0,14.507,11.093,25.6,25.6,25.6c14.507,0,25.6-11.093,25.6-25.6C280.6,300.227,269.507,289.133,255,289.133z"/>
	<path style="fill:#D0E8F9;" d="M417.133,314.733c0,18.773-15.36,34.133-34.133,34.133c-18.773,0-34.133-15.36-34.133-34.133   c0-18.773,15.36-34.133,34.133-34.133C401.773,280.6,417.133,295.96,417.133,314.733L417.133,314.733z"/>
	<path style="fill:#0096E6;" d="M383,357.4c-23.893,0-42.667-18.773-42.667-42.667c0-23.893,18.773-42.667,42.667-42.667   c23.893,0,42.667,18.773,42.667,42.667C425.667,338.627,406.893,357.4,383,357.4z M383,289.133c-14.507,0-25.6,11.093-25.6,25.6   c0,14.507,11.093,25.6,25.6,25.6c14.507,0,25.6-11.093,25.6-25.6C408.6,300.227,397.507,289.133,383,289.133z"/>
</g>
</svg>